<?xml version="1.0" encoding="UTF-8"?>
<svg id="a" data-name="svg9" xmlns="http://www.w3.org/2000/svg" width="13.28in" height="6.64in" viewBox="0 0 956 477.96">
  <g id="b" data-name="g15">
    <g id="c" data-name="g17">
      <path id="d" data-name="path19" d="M198.65,67.91l-119.37,287.11h74.66l51.17-123.07-21.02,123.07h11.19l70.99-42.5,13.63-114.97,96.64-129.64h-70.05l-79.54,111.55,46.38-111.55h-74.66ZM264.87,324.23l-51.42,30.79h28.58l20.66-12.37,2.18-18.42ZM261.3,354.37l-1.09.65h1.02l.07-.65Z" style="fill: #ededed; stroke-width: 0px;"/>
      <path id="e" data-name="path21" d="M435.53,115.43c-20.22,0-38.22,3.78-54.02,11.35-15.79,7.57-27.89,16.32-36.27,26.24-8.22,9.81-16.11,23.82-23.68,42.03l-6.57,15.78h67.21l10.25-24.65c5.46-13.12,9.42-21.22,11.88-24.29,2.51-3.19,6.18-4.79,11.03-4.79,4.26,0,6.49,1.9,6.69,5.68.37,3.67-2.01,11.65-7.11,23.94-4.08,9.81-7.61,16.31-10.6,19.51-2.98,3.19-18.15,9.4-45.51,18.62-25.53,8.51-42.4,15.96-50.61,22.34-8.21,6.39-15.97,18.39-23.3,36l-8.04,19.33c-.68,1.63-1.31,3.21-1.91,4.77l213.08-127.58c2.94-8.47,4.93-15.07,5.94-19.77,2.73-12.53-.29-23.05-9.05-31.57-8.7-8.63-25.18-12.94-49.41-12.94ZM482.98,193.63l-94.43,56.54-9.47,22.78,95.17-56.98c3.27-8.16,6.23-15.71,8.72-22.34h0ZM468.38,230.38l-95.32,57.07-1.7,4.08c-1.62,3.91-3.08,7.15-4.45,10.08l95.74-57.33,3.07-7.38c.98-2.36,1.73-4.28,2.67-6.53h0ZM456.62,258.79l-165.58,99.14c3.84.89,7.97,1.34,12.43,1.34,9.58,0,18.66-2.07,27.23-6.2,8.75-4.26,17.05-10.58,24.91-18.98l-8.7,20.93h69.7l40.01-96.23ZM360.98,266.68l-90.42,54.15c-1.9,7.3-2.5,13.37-1.84,18.21l80.2-48.02c.33-.81.57-1.48.93-2.33,3.82-9.2,7.54-16.53,11.14-22.01h0ZM343.8,304.97l-71.51,42.82c.3.35.62.69.96,1.01,2.05,1.88,4.3,3.5,6.71,4.87l63.62-38.09c-.75-.84-1.16-1.94-1.23-3.31-.03-1.57.48-4.04,1.46-7.31h0Z" style="fill: #ededed; stroke-width: 0px;"/>
      <path id="f" data-name="path23" d="M762.03,119.69l-15.67,30.86c19.59-22.11,39.54-33.81,59.82-35.11l-34.44,82.82c-13.12,0-23.49,1.77-31.11,5.32-7.62,3.55-13.47,8.51-17.55,14.89-4.02,6.27-10.78,20.81-20.27,43.63l-38.64,92.92h-71.65l97.84-235.33h71.65Z" style="fill: #ededed; stroke-width: 0px;"/>
      <path id="g" data-name="path25" d="M956,67.91l-76.64,287.11h-76.43l17.73-51.6h-26.78l-25.89,51.6h-77.32l157.32-287.11h108ZM839.69,252.52c9.73-32.51,22.64-72.65,38.71-120.41-30.38,54.85-51.79,94.99-64.25,120.41h25.54Z" style="fill: #ededed; stroke-width: 0px;"/>
      <path id="h" data-name="path27" d="M543.55,67.91l-43.5,104.62,73.85-44.22c-.06-1.03-.35-2.18-.98-3.44,3.03,1.51,6.96-.42,7.93-1.1,1.45-1.02.7-3.95.81-6.15,2.47,1.59,4.18,2.41,5.53,2.73l.25-.15-.04.19c.77.16,1.42.16,2.01.04,1.68-.34,3.2-2.6,5.09-4.32.92,2.36,3.62,3.97,5.29,4.32,1.68.34,3.39.83,5.15-.98,2.18,2.05,1.82,4.37,3.19,5.29,1.37.93,3.33.01,7.71.32-.77,2.88-.81,4.83.12,6.2.92,1.37,2.07,1.84,5.08,2.64-1.21,3.04-1.55,4.9-1.2,6.57.34,1.68,3.27,3.06,4.53,4.32l-2.19.98c-2.05.42-3.34,3.54-2.34,5.08.93,1.44.05,5.15,1.64,6.91-2.47-.39-4.59.94-5.52,2.31-.93,1.37-1.84,3.41-.44,5.75-2.11-.3-4.53.18-6.01.95l-.1.53-1.35.81c-.84,1.37-1.51,3.47-2.57,4.76-.12-1.03-.99-1.67-2.03-2.01l-136.77,81.89-42.52,102.27h74.66l48.07-115.62h20.04c16.31,0,30.43-2.25,42.35-6.74,12.04-4.49,21.69-10.93,28.96-19.33,7.28-8.4,14.72-21.75,22.34-40.08l10.4-25.01c7.47-17.97,11.97-31.21,13.51-39.72,1.7-8.63,1.02-15.96-2.03-21.99-2.93-6.03-9.23-10.64-18.89-13.83-9.55-3.19-24.49-4.79-44.83-4.79h-75.19ZM568.68,142.32l-74.66,44.7-9.47,22.79,86.3-51.67c-1.2-.89-2.58-1.66-3.99-1.36,1.49-1.9,4.14-5.19,2.95-6.35.42-3.39-1.67-2.81-3.77-4.1,0,0,1.64-2.01,2.64-3.99h0ZM577.14,165.26l-98.61,59.05-5.8,13.95,113.32-67.85c-2.62-.31-5.75-.41-6.47.83-.04-2.37,1.62-2.89.63-4.2-.77-1.03-1.82-1.49-3.06-1.77Z" style="fill: #ededed; stroke-width: 0px;"/>
      <path id="i" data-name="path29" d="M805.6.01c-9.05-.23-20.69,2.84-34.13,10.55l-40.37,23.19.02.02c-.13.05-.25.1-.37.17-2.96,1.69-4.47,5.63-4.2,10.92.26,5.3,2.28,11.53,5.6,17.33,6.93,12.07,17.54,19,23.69,15.46.13-.08.25-.17.38-.26.05-.03,8.41-4.69,39.88-22.9C836.66,31.03,832.76.7,805.6.01ZM736.3,38.75c5.05.11,11.52,5.08,15.94,12.25,2.67,4.34,4.29,9.01,4.5,12.97.21,3.97-1,6.91-3.38,8.18-4.94,2.64-13.46-2.54-19.03-11.57-5.56-9.03-6.07-18.49-1.13-21.14.9-.48,1.94-.71,3.1-.68h0Z" style="fill: #ededed; stroke-width: 0px;"/>
      <g id="j" data-name="g31">
        <path id="k" data-name="path33" d="M721.44,45.5L.49,477.15" style="fill: none; stroke: #ededed; stroke-miterlimit: 5.33; stroke-width: 1.89px;"/>
      </g>
      <g id="l" data-name="g35">
        <path id="m" data-name="path37" d="M747.23,77.25L126.25,452.74" style="fill: none; stroke: #ededed; stroke-miterlimit: 5.33; stroke-width: 1.89px;"/>
      </g>
      <g id="n" data-name="g39">
        <path id="o" data-name="path41" d="M750.39,57.19L151.8,414.16" style="fill: none; stroke: #ededed; stroke-miterlimit: 5.33; stroke-width: 1.89px;"/>
      </g>
    </g>
  </g>
</svg>